<?xml version="1.0" encoding="UTF-8" standalone="no"?>
<!DOCTYPE svg PUBLIC "-//W3C//DTD SVG 1.1//EN" "http://www.w3.org/Graphics/SVG/1.1/DTD/svg11.dtd">
<svg width="100%" height="100%" viewBox="0 0 1347 378" version="1.1" xmlns="http://www.w3.org/2000/svg" xmlns:xlink="http://www.w3.org/1999/xlink" xml:space="preserve" xmlns:serif="http://www.serif.com/" style="fill-rule: evenodd; clip-rule: evenodd">
    <g transform="matrix(1,0,0,1,-4633.38,-439.112)">
        <g transform="matrix(5.06775,0,0,5.15,-10428,112.114)">
            <g transform="matrix(1,0,0,1,62.8782,-282.245)">
                <g id="g5690" transform="matrix(0.430401,0,0,-0.423528,2931.63,347.931)">
                    <path id="path5692" d="M0,0C0.638,1.02 1.179,1.624 1.627,1.817C2.069,2.01 2.441,1.962 2.727,1.675C3.013,1.386 3.458,1.066 4.068,0.717C4.671,0.366 5.323,0.193 6.029,0.193C6.537,0.193 7.846,-0.303 9.952,-1.293C12.056,-2.282 13.683,-2.84 14.831,-2.965L17.033,-3.348L17.799,-10.429C17.926,-11.645 18.261,-14.848 18.802,-20.047C19.344,-25.245 19.888,-30.464 20.429,-35.691C20.971,-40.924 21.467,-45.037 21.912,-48.036C22.742,-53.776 22.997,-56.806 22.677,-57.127C22.36,-57.441 19.84,-57.733 15.12,-57.988L7.943,-58.465L7.56,-54.065C5.647,-34.608 4.465,-24.877 4.02,-24.877C3.827,-24.877 3.572,-25.186 3.254,-25.79C2.934,-26.393 2.313,-27.626 1.389,-29.472C0.462,-31.323 -0.541,-33.205 -1.627,-35.118C-2.713,-36.969 -3.334,-38.214 -3.492,-38.849C-3.654,-39.487 -3.574,-40.258 -3.254,-41.145C-3.061,-42.041 -2.965,-42.647 -2.965,-42.965C-2.965,-43.282 -3.175,-43.651 -3.589,-44.065C-4.003,-44.478 -4.433,-44.83 -4.881,-45.119C-5.326,-45.405 -5.885,-45.927 -6.554,-46.695C-7.226,-47.46 -7.815,-48.387 -8.325,-49.467C-8.77,-50.301 -9.153,-50.879 -9.473,-51.194C-9.794,-51.514 -10.063,-51.67 -10.287,-51.67C-10.511,-51.67 -10.956,-51.559 -11.625,-51.338C-12.297,-51.114 -12.886,-50.97 -13.397,-50.907C-13.652,-50.845 -14.564,-50.4 -16.123,-49.567C-17.685,-48.739 -19.233,-47.767 -20.764,-46.65C-22.294,-45.536 -22.932,-44.719 -22.677,-44.209C-22.105,-42.806 -21.96,-41.624 -22.246,-40.669C-22.535,-39.708 -23.573,-38.024 -25.359,-35.6C-28.61,-31.068 -30.399,-29.758 -30.716,-31.671C-30.781,-31.929 -30.813,-32.216 -30.813,-32.533C-30.813,-33.367 -30.988,-34.398 -31.337,-35.646C-31.689,-36.887 -32.426,-39.362 -33.54,-43.061C-34.656,-46.76 -35.787,-51.069 -36.935,-55.981C-37.573,-58.595 -38.052,-60.029 -38.37,-60.284C-38.563,-60.537 -40.779,-60.06 -45.02,-58.853C-49.266,-57.637 -51.61,-56.84 -52.055,-56.455C-52.311,-56.203 -52.231,-55.21 -51.814,-53.49C-51.401,-51.772 -50.27,-47.908 -48.419,-41.91L-43.537,-25.546C-42.902,-23.315 -42.137,-20.829 -41.241,-18.088C-40.476,-15.664 -40.093,-14.145 -40.093,-13.541C-40.093,-12.934 -40.51,-12.093 -41.338,-11.007C-41.593,-10.621 -41.786,-10.304 -41.91,-10.046C-43.444,-7.815 -44.113,-6.542 -43.92,-6.219C-43.537,-5.584 -41.927,-4.357 -39.09,-2.537C-36.252,-0.717 -34.387,0.283 -33.491,0.479C-32.981,0.669 -32.533,0.717 -32.151,0.621C-31.768,0.524 -31.53,0.414 -31.433,0.283C-31.337,0.159 -31.164,-0.113 -30.906,-0.527C-30.654,-0.941 -30.43,-1.386 -30.237,-1.865C-30.047,-2.344 -29.665,-2.982 -29.089,-3.781C-28.517,-4.581 -27.814,-5.391 -26.983,-6.219C-25.197,-8.073 -24.304,-9.281 -24.304,-9.856C-24.304,-10.494 -22.663,-13.365 -19.378,-18.468C-16.092,-23.573 -14.227,-26.124 -13.779,-26.124C-13.524,-26.124 -12.424,-24.256 -10.477,-20.529C-8.532,-16.792 -6.443,-12.694 -4.209,-8.229C-1.979,-3.764 -0.575,-1.023 0,0" style="fill: #231f20; fill-rule: nonzero"></path>
                </g>
                <g id="g5694" transform="matrix(0.430401,0,0,-0.423528,2955.98,348.164)">
                    <path id="path5696" d="M0,0C2.619,0.921 4.161,1.344 4.623,1.276C4.881,1.213 5.44,0 6.296,-2.364C7.146,-4.717 8.048,-7.294 8.997,-10.083C9.95,-12.869 10.556,-14.587 10.817,-15.242C10.882,-15.378 13.113,-22.195 17.507,-35.702C19.406,-41.536 20.602,-45.454 21.095,-47.452C21.589,-49.453 21.668,-50.615 21.342,-50.944C20.948,-51.335 18.882,-52.14 15.146,-53.351C11.409,-54.567 9.179,-55.174 8.459,-55.174C7.999,-55.174 7.194,-53.484 6.046,-50.108C4.901,-46.732 3.9,-43.138 3.047,-39.339C2.262,-35.731 0.901,-31.093 -1.035,-25.421C-2.965,-19.755 -4.13,-16.982 -4.524,-17.11C-4.918,-17.246 -5.953,-20.869 -7.622,-27.978C-9.295,-35.093 -10.621,-41.403 -11.605,-46.908C-12.523,-52.22 -13.246,-55.106 -13.768,-55.562C-14.295,-56.024 -16.818,-55.732 -21.342,-54.68C-21.671,-54.615 -22.127,-54.516 -22.717,-54.386C-23.7,-54.187 -24.389,-54.043 -24.783,-53.943C-25.177,-53.844 -25.654,-53.649 -26.209,-53.351C-26.768,-53.056 -27.128,-52.863 -27.292,-52.764C-27.456,-52.662 -27.618,-52.356 -27.785,-51.829C-27.947,-51.304 -28.012,-50.879 -27.978,-50.55C-27.947,-50.221 -27.867,-49.567 -27.734,-48.58C-27.604,-47.599 -27.439,-46.763 -27.241,-46.074C-27.045,-45.388 -26.751,-44.223 -26.357,-42.585C-25.177,-37.8 -24.228,-33.633 -23.505,-30.093C-19.31,-10.295 -16.914,-0.164 -16.325,0.295C-15.999,0.556 -13.836,0.36 -9.833,-0.295C-7.016,-0.822 -5.131,-1.066 -4.181,-1.035C-3.229,-1.003 -1.837,-0.658 0,0" style="fill: #231f20; fill-rule: nonzero"></path>
                </g>
                <g id="g5698" transform="matrix(0.430401,0,0,-0.423528,2985.94,349.674)">
                    <path id="path5700" d="M0,0C1.723,1.083 2.934,1.658 3.637,1.721C4.337,1.721 5.63,0.031 7.512,-3.353C9.394,-6.729 10.525,-8.932 10.908,-9.952C11.1,-10.466 10.908,-10.939 10.335,-11.387C9.505,-12.025 4.72,-14.8 -4.02,-19.712C-11.356,-23.862 -15.503,-26.314 -16.458,-27.079L-17.895,-28.227L-15.024,-30.334C-13.173,-31.671 -10.015,-33.605 -5.55,-36.125C-1.083,-38.642 2.871,-40.859 6.316,-42.775C9.76,-44.685 11.546,-45.833 11.673,-46.219C11.866,-46.791 10.814,-49.008 8.515,-52.869C6.219,-56.727 4.785,-58.657 4.209,-58.657C4.02,-58.657 0.607,-56.713 -6.029,-52.821C-12.662,-48.932 -16.234,-46.791 -16.744,-46.409C-18.595,-45.198 -20.285,-44.161 -21.818,-43.299C-23.349,-42.437 -24.559,-41.831 -25.452,-41.482C-26.345,-41.134 -26.855,-41.114 -26.983,-41.437C-27.176,-42.007 -27.334,-44.116 -27.462,-47.75L-27.655,-53.206L-41.72,-53.206L-42.103,-39.711C-42.293,-30.716 -42.293,-21.725 -42.103,-12.728L-41.72,0.765L-27.655,0.765L-27.462,-6.985C-27.334,-12.087 -27.079,-14.831 -26.697,-15.214C-26.442,-15.406 -25.118,-14.927 -22.725,-13.782C-20.333,-12.631 -18.626,-11.611 -17.606,-10.718C-16.906,-10.142 -16.458,-9.856 -16.268,-9.856C-16.075,-9.856 -13.844,-8.563 -9.57,-5.981C-5.295,-3.399 -2.106,-1.403 0,0" style="fill: #231f20; fill-rule: nonzero"></path>
                </g>
                <g id="g5702" transform="matrix(0.430401,0,0,-0.423528,2993.18,348.701)">
                    <path id="path5704" d="M0,0C0.128,0.383 1.817,0.607 5.071,0.669C8.325,0.731 15.437,0.669 26.41,0.479C43.889,0.156 53.042,-0.13 53.872,-0.386C54.383,-0.513 54.686,-0.944 54.782,-1.678C54.876,-2.409 54.831,-4.309 54.638,-7.367C54.383,-11.837 54.128,-14.292 53.872,-14.74C53.683,-14.995 53.283,-15.137 52.676,-15.168C52.07,-15.202 50.683,-15.185 48.515,-15.12C42.327,-14.868 35.884,-14.675 29.186,-14.547L14.737,-14.355L14.737,-19.519L53.872,-19.519L54.065,-26.314C54.19,-30.847 53.969,-33.367 53.393,-33.874C52.821,-34.39 46.123,-34.673 33.299,-34.736L14.066,-34.929L14.066,-40.671L52.628,-41.34L52.628,-54.833L26.028,-55.02C8.229,-55.148 -0.862,-54.986 -1.244,-54.544C-1.5,-54.286 -1.434,-45.371 -1.052,-27.799C-0.669,-10.225 -0.32,-0.958 -0,0" style="fill: #231f20; fill-rule: nonzero"></path>
                </g>
                <g id="g5706" transform="matrix(0.430401,0,0,-0.423528,3031.94,359.522)">
                    <path id="path5708" d="M0,0C0.507,0.383 -1.947,1.882 -7.367,4.499C-9.091,5.323 -10.046,5.737 -10.239,5.737C-10.689,5.737 -11.052,4.354 -11.339,1.579C-11.628,-1.196 -11.546,-2.713 -11.1,-2.965C-10.783,-3.158 -8.946,-2.823 -5.598,-1.962C-2.248,-1.1 -0.383,-0.448 0,0M-24.497,27.366C-23.862,28.193 -22.391,28.145 -20.095,27.221C-17.799,26.297 -12.535,23.695 -4.306,19.426C7.875,13.042 16.33,8.898 21.05,6.985L24.687,5.55L26.41,-0.482C27.493,-4.499 28.037,-6.701 28.037,-7.081C28.037,-7.464 26.552,-8.053 23.587,-8.853C20.619,-9.649 17.558,-10.449 14.4,-11.239C11.242,-12.042 9.505,-12.6 9.187,-12.917C8.929,-13.113 9.726,-13.717 11.58,-14.737C12.917,-15.565 15.562,-16.937 19.519,-18.853C23.984,-21.087 26.28,-22.326 26.41,-22.584C26.535,-22.774 26.459,-23.238 26.169,-23.973C25.883,-24.704 25.342,-25.9 24.545,-27.558C23.746,-29.214 23.122,-30.589 22.677,-31.671C21.594,-34.163 20.764,-35.405 20.191,-35.405C19.809,-35.405 17.476,-34.316 13.204,-32.153C8.804,-29.92 4.751,-27.876 1.052,-26.028C-6.092,-22.394 -10.273,-20.494 -11.483,-20.33C-12.694,-20.177 -13.397,-20.863 -13.586,-22.394C-13.652,-22.966 -13.683,-24.403 -13.683,-26.697L-13.683,-29.852C-13.683,-30.492 -13.813,-31.164 -14.066,-31.864C-14.323,-32.564 -14.545,-33.012 -14.737,-33.205C-14.927,-33.392 -15.406,-33.554 -16.172,-33.684C-16.937,-33.809 -17.671,-33.84 -18.371,-33.778C-19.077,-33.718 -20.191,-33.588 -21.722,-33.392C-25.997,-32.947 -28.307,-32.564 -28.658,-32.247C-29.013,-31.929 -28.517,-24.304 -27.176,-9.377C-27.048,-8.164 -26.889,-6.506 -26.697,-4.402C-25.741,5.737 -25.452,11.48 -25.835,12.818C-26.09,13.782 -26.793,14.573 -27.941,15.214C-28.324,15.406 -28.61,15.562 -28.803,15.69C-29.316,16.013 -29.506,16.458 -29.375,17.031C-29.248,17.606 -28.644,19.074 -27.558,21.43C-25.965,24.88 -24.942,26.855 -24.497,27.366" style="fill: #231f20; fill-rule: nonzero"></path>
                </g>
                <g id="g5710" transform="matrix(0.430401,0,0,-0.423528,3068.92,348.256)">
                    <path id="path5712" d="M0,0C0.575,0.635 1.182,0.065 1.82,-1.721C2.837,-4.847 3.254,-8.26 3.059,-11.962C2.999,-13.238 2.806,-14.006 2.492,-14.258C2.044,-14.513 -0.703,-14.882 -5.74,-15.358C-10.78,-15.837 -15.676,-16.33 -20.432,-16.841C-25.183,-17.351 -27.558,-17.861 -27.558,-18.371C-27.558,-18.561 -25.101,-19.823 -20.191,-22.153C-15.279,-24.48 -10.287,-26.81 -5.216,-29.137C-0.145,-31.467 2.52,-32.757 2.775,-33.012C3.095,-33.33 2.934,-34.132 2.296,-35.402C1.851,-36.298 1.627,-37.035 1.627,-37.602C1.627,-38.18 1.882,-39.231 2.39,-40.762C3.03,-42.999 3.127,-44.34 2.679,-44.785C2.234,-45.232 -2.237,-46.888 -10.718,-49.757L-35.118,-58.085C-42.965,-60.763 -47.143,-62.005 -47.656,-61.815C-48.033,-61.688 -48.98,-59.63 -50.474,-55.644C-51.976,-51.659 -52.438,-49.374 -51.866,-48.801C-51.48,-48.419 -48.801,-47.381 -43.824,-45.692C-38.849,-44.002 -33.985,-42.31 -29.234,-40.62C-24.48,-38.928 -22.102,-37.894 -22.102,-37.511C-22.102,-37.063 -23.304,-36.218 -25.693,-34.971C-28.083,-33.729 -30.11,-32.885 -31.768,-32.44C-33.168,-32.057 -36.729,-30.668 -42.437,-28.276C-48.146,-25.88 -51.194,-24.497 -51.574,-24.111C-52.021,-23.666 -52.021,-23.06 -51.574,-22.294C-51.129,-21.594 -51.129,-18.785 -51.574,-13.876C-52.021,-8.963 -51.993,-6.347 -51.48,-6.032C-50.973,-5.516 -42.279,-4.385 -25.404,-2.628C-8.532,-0.876 -0.062,0 0,0" style="fill: #231f20; fill-rule: nonzero"></path>
                </g>
                <g id="g5714" transform="matrix(0.430401,0,0,-0.423528,3087.46,355.753)">
                    <path id="path5716" d="M0,0C-0.065,0.575 -1.196,1.165 -3.396,1.769C-5.598,2.375 -7.991,2.923 -10.576,3.396C-13.156,3.875 -14.576,4.147 -14.831,4.209C-15.537,4.53 -15.979,4.368 -16.172,3.733C-16.557,2.903 -16.62,-0.113 -16.362,-5.309C-16.109,-10.511 -15.823,-13.11 -15.503,-13.11C-14.868,-13.11 -12.093,-11.049 -7.177,-6.939C-2.268,-2.823 0.125,-0.51 0,0M-31.099,22.584L-31.099,22.677C-30.781,23.38 -30.302,23.698 -29.665,23.635C-29.03,23.57 -27.051,23.063 -23.732,22.105C-20.288,21.146 -17.223,20.285 -14.547,19.522C-11.166,18.564 -7.787,17.575 -4.402,16.554C-1.023,15.534 1.894,14.675 4.354,13.972C6.809,13.266 9.598,12.566 12.725,11.866C17.827,10.718 20.585,9.967 21.002,9.615C21.419,9.264 21.243,7.909 20.475,5.553C19.967,3.892 19.692,2.789 19.661,2.251C19.63,1.706 19.868,1.083 20.381,0.383C21.084,-0.706 21.433,-1.434 21.433,-1.817C21.433,-2.2 18.275,-4.944 11.962,-10.046L-2.2,-21.433C-6.925,-25.452 -9.859,-27.91 -11.007,-28.803C-12.152,-29.699 -12.889,-30.141 -13.207,-30.141C-13.586,-30.141 -14.227,-30.654 -15.12,-31.671C-15.693,-32.309 -16.061,-33.109 -16.223,-34.064C-16.379,-35.022 -16.526,-37.06 -16.651,-40.19L-16.841,-47.171L-30.909,-47.171L-30.909,6.123L-28.23,6.316C-26.382,6.443 -25.452,6.667 -25.452,6.985C-25.452,7.305 -26.923,7.877 -29.854,8.708L-34.163,9.952L-33.97,12.535C-33.843,13.81 -33.477,15.551 -32.868,17.753C-32.267,19.953 -31.671,21.56 -31.099,22.584" style="fill: #231f20; fill-rule: nonzero"></path>
                </g>
                <g id="g5718" transform="matrix(0.430401,0,0,-0.423528,3109.57,361.062)">
                    <path id="path5720" d="M0,0C0,0.507 -0.289,1.148 -0.862,1.916C-1.247,2.548 -1.517,2.854 -1.678,2.823C-1.837,2.789 -2.075,2.458 -2.392,1.817C-2.713,1.307 -2.937,0.78 -3.061,0.241C-3.192,-0.303 -3.209,-0.734 -3.112,-1.052C-3.016,-1.372 -2.837,-1.531 -2.585,-1.531C-1.945,-1.531 -1.358,-1.372 -0.816,-1.052C-0.275,-0.734 0,-0.386 0,0M-9.952,24.593C-9.763,24.976 -9.459,25.197 -9.043,25.262C-8.629,25.322 -8.056,25.231 -7.322,24.976C-6.588,24.721 -5.774,24.429 -4.881,24.114C-3.988,23.791 -2.857,23.443 -1.485,23.06C-0.113,22.677 1.242,22.425 2.582,22.297L5.451,21.818L16.172,0.386L25.546,0.386L25.931,-4.02C26.311,-8.104 26.439,-10.783 26.311,-12.056C26.186,-13.331 25.673,-14.131 24.78,-14.448C23.698,-14.831 23.153,-15.134 23.153,-15.355C23.153,-15.582 23.956,-17.195 25.546,-20.191C26.566,-22.167 27.159,-23.46 27.317,-24.069C27.476,-24.67 27.366,-25.197 26.983,-25.645C26.41,-26.155 24.429,-27.317 21.05,-29.137C17.666,-30.954 15.914,-31.799 15.786,-31.671C15.721,-31.544 14.434,-29.103 11.911,-24.352C9.391,-19.602 7.94,-16.971 7.56,-16.455C7.24,-16.075 6.537,-15.854 5.451,-15.786C4.368,-15.724 2.358,-15.755 -0.575,-15.885C-2.299,-16.013 -3.54,-16.092 -4.309,-16.123C-5.071,-16.155 -5.919,-16.302 -6.843,-16.557C-7.77,-16.809 -8.359,-17.033 -8.612,-17.223C-8.87,-17.416 -9.235,-17.864 -9.711,-18.564C-10.191,-19.264 -10.511,-19.936 -10.672,-20.574C-10.828,-21.212 -11.134,-22.232 -11.58,-23.638C-12.472,-26.697 -13.175,-28.483 -13.683,-28.993C-14.199,-29.568 -16.362,-29.075 -20.194,-27.51C-24.021,-25.948 -26.11,-25.007 -26.461,-24.687C-26.81,-24.367 -26.668,-23.284 -26.031,-21.433C-25.393,-19.65 -25.072,-18.578 -25.072,-18.227C-25.072,-17.881 -25.421,-17.643 -26.124,-17.51C-26.7,-17.382 -27.079,-16.903 -27.275,-16.075C-27.462,-15.245 -27.655,-13.431 -27.848,-10.621C-28.171,-6.282 -28.182,-3.909 -27.893,-3.492C-27.609,-3.078 -26.538,-2.871 -24.69,-2.871C-22.266,-2.871 -20.639,-2.571 -19.809,-1.962C-18.981,-1.355 -18.247,0 -17.609,2.106C-15.885,8.229 -13.337,15.727 -9.952,24.593" style="fill: #231f20; fill-rule: nonzero"></path>
                </g>
                <g id="g5722" transform="matrix(0.430401,0,0,-0.423528,3123.94,349.714)">
                    <path id="path5724" d="M0,0C0.193,0.255 9.15,0.3 26.889,0.147C44.623,-0.017 53.776,-0.255 54.351,-0.575C54.734,-0.765 54.91,-2.588 54.879,-6.029C54.845,-9.473 54.641,-11.707 54.255,-12.728L53.586,-14.448L15.503,-13.878L15.693,-25.838C15.758,-33.746 16.013,-37.987 16.458,-38.563C16.971,-39.141 23.253,-39.249 35.308,-38.9C47.367,-38.546 53.555,-38.693 53.875,-39.328C54.255,-39.903 54.544,-42.148 54.734,-46.074C54.924,-50 54.833,-52.087 54.448,-52.339C54.065,-52.532 45.006,-52.724 27.272,-52.914L0.578,-53.107L0.286,-46.791C0.096,-42.582 0.255,-40.224 0.768,-39.708C1.341,-39.141 1.276,-32.505 0.578,-19.809C-0.128,-7.112 -0.317,-0.51 0,0" style="fill: #231f20; fill-rule: nonzero"></path>
                </g>
                <g id="g5726" transform="matrix(0.430401,0,0,-0.423528,3172.01,348.256)">
                    <path id="path5728" d="M0,0C1.02,0.383 1.738,0.193 2.154,-0.575C2.568,-1.341 2.999,-3.348 3.444,-6.599C4.079,-11.004 4.195,-13.414 3.779,-13.827C3.365,-14.241 -0.893,-14.896 -8.994,-15.789L-34.064,-18.66L-34.26,-21.24C-34.387,-23.029 -34.288,-24.08 -33.968,-24.403C-33.205,-25.101 -29.631,-25.166 -23.253,-24.591C-21.784,-24.403 -17.254,-23.922 -9.663,-23.156C-3.671,-22.518 0.096,-22.201 1.624,-22.201L4.02,-22.201L4.689,-26.507C5.136,-29.375 5.42,-31.671 5.55,-33.392L5.74,-35.98L0.575,-36.456C-20.988,-38.307 -32.182,-39.651 -33.012,-40.476C-33.46,-40.921 -33.523,-41.783 -33.205,-43.061L-32.627,-44.974L-24.018,-44.878C-18.34,-44.878 -11.928,-44.719 -4.785,-44.399L5.834,-43.92L6.316,-47.94C6.951,-54.445 6.888,-57.923 6.126,-58.371C5.805,-58.623 -0.031,-58.975 -11.387,-59.423L-37.701,-60.474C-43.954,-60.729 -47.237,-60.602 -47.56,-60.092C-47.684,-59.837 -47.829,-58.207 -47.991,-55.213C-48.146,-52.214 -48.308,-48.674 -48.467,-44.592C-48.626,-40.507 -48.835,-37.449 -49.088,-35.402C-49.343,-33.046 -49.456,-30.637 -49.422,-28.182C-49.391,-25.727 -49.343,-24.097 -49.28,-23.304C-49.218,-22.501 -49.343,-21.56 -49.663,-20.477C-50.176,-19.585 -50.559,-16.968 -50.811,-12.631C-51.129,-8.68 -51.1,-6.506 -50.715,-6.123C-50.587,-5.998 -50.267,-5.837 -49.759,-5.647C-49.119,-5.391 -40.731,-4.416 -24.593,-2.727C-8.453,-1.037 -0.255,-0.128 0,0" style="fill: #231f20; fill-rule: nonzero"></path>
                </g>
            </g>
        </g>
        <g transform="matrix(5.06775,0,0,5.15,-10428,112.114)">
            <g transform="matrix(1.18965,0,0,1.17065,2888.44,-594.184)">
                <g transform="matrix(0.173586,0,0,0.173586,-98.8582,304.964)">
                    <g transform="matrix(76.681,0,0,76.681,973.24,1738.35)">
                        <path d="M0.093,-0L0.093,-0.711L0.291,-0.711C0.433,-0.711 0.54,-0.681 0.61,-0.62C0.68,-0.56 0.715,-0.473 0.715,-0.36C0.715,-0.242 0.681,-0.153 0.612,-0.092C0.543,-0.031 0.443,-0 0.311,-0L0.093,-0ZM0.217,-0.106L0.317,-0.106C0.403,-0.106 0.469,-0.128 0.515,-0.171C0.561,-0.214 0.584,-0.277 0.584,-0.36C0.584,-0.439 0.561,-0.5 0.514,-0.542C0.468,-0.584 0.397,-0.604 0.302,-0.604L0.217,-0.604L0.217,-0.106Z" style="fill-rule: nonzero"></path>
                    </g>
                    <g transform="matrix(76.681,0,0,76.681,1047.4,1738.35)">
                        <path d="M0.256,-0.289L0.446,-0.289C0.409,-0.4 0.377,-0.492 0.352,-0.566C0.331,-0.504 0.299,-0.412 0.256,-0.289ZM0.006,-0L0.292,-0.711L0.417,-0.711L0.706,-0L0.565,-0L0.497,-0.173L0.209,-0.173L0.142,-0L0.006,-0Z" style="fill-rule: nonzero"></path>
                    </g>
                    <g transform="matrix(76.681,0,0,76.681,1117.32,1738.35)">
                        <path d="M0.215,-0.406L0.334,-0.406C0.423,-0.406 0.467,-0.44 0.467,-0.509C0.467,-0.546 0.458,-0.572 0.439,-0.585C0.42,-0.598 0.39,-0.604 0.347,-0.604L0.215,-0.604L0.215,-0.406ZM0.093,-0L0.093,-0.711L0.349,-0.711C0.388,-0.711 0.422,-0.708 0.45,-0.702C0.479,-0.696 0.505,-0.686 0.528,-0.672C0.551,-0.658 0.568,-0.638 0.58,-0.612C0.592,-0.585 0.598,-0.553 0.598,-0.515C0.598,-0.475 0.586,-0.439 0.562,-0.408C0.538,-0.378 0.502,-0.357 0.455,-0.346C0.497,-0.322 0.529,-0.285 0.549,-0.235L0.645,-0L0.511,-0L0.429,-0.211C0.416,-0.246 0.401,-0.27 0.386,-0.282C0.37,-0.295 0.347,-0.301 0.315,-0.301L0.217,-0.301L0.217,-0L0.093,-0Z" style="fill-rule: nonzero"></path>
                    </g>
                    <g transform="matrix(76.681,0,0,76.681,1184.63,1738.35)">
                        <path d="M0.093,-0L0.093,-0.711L0.238,-0.711C0.248,-0.688 0.284,-0.609 0.345,-0.472C0.407,-0.335 0.454,-0.231 0.487,-0.159C0.512,-0.214 0.538,-0.271 0.564,-0.33C0.591,-0.39 0.621,-0.459 0.656,-0.539C0.691,-0.618 0.716,-0.675 0.732,-0.711L0.877,-0.711L0.877,-0L0.761,-0L0.761,-0.508C0.744,-0.47 0.668,-0.301 0.532,-0L0.441,-0C0.424,-0.037 0.4,-0.09 0.37,-0.158C0.339,-0.226 0.311,-0.288 0.286,-0.344C0.26,-0.399 0.236,-0.451 0.212,-0.5L0.212,-0L0.093,-0Z" style="fill-rule: nonzero"></path>
                    </g>
                    <g transform="matrix(76.681,0,0,76.681,1274.36,1738.35)">
                        <path d="M0.304,0.011C0.255,0.011 0.208,0.004 0.163,-0.01C0.118,-0.025 0.082,-0.044 0.056,-0.07L0.109,-0.159C0.132,-0.141 0.162,-0.126 0.199,-0.113C0.236,-0.101 0.268,-0.095 0.296,-0.095C0.34,-0.095 0.373,-0.103 0.394,-0.119C0.415,-0.135 0.425,-0.16 0.425,-0.193C0.425,-0.206 0.424,-0.217 0.422,-0.225C0.42,-0.233 0.416,-0.241 0.409,-0.25C0.402,-0.258 0.392,-0.266 0.379,-0.274C0.365,-0.281 0.347,-0.289 0.324,-0.297C0.314,-0.3 0.298,-0.306 0.275,-0.313C0.251,-0.32 0.234,-0.326 0.224,-0.33C0.165,-0.352 0.123,-0.378 0.096,-0.408C0.07,-0.439 0.057,-0.479 0.057,-0.531C0.057,-0.572 0.068,-0.608 0.09,-0.638C0.112,-0.667 0.141,-0.689 0.177,-0.703C0.214,-0.717 0.255,-0.724 0.302,-0.724C0.366,-0.724 0.415,-0.718 0.45,-0.706C0.485,-0.693 0.519,-0.672 0.55,-0.642L0.486,-0.56C0.446,-0.598 0.391,-0.617 0.32,-0.617C0.281,-0.617 0.25,-0.611 0.225,-0.597C0.201,-0.584 0.189,-0.563 0.189,-0.536C0.189,-0.523 0.19,-0.512 0.192,-0.503C0.195,-0.495 0.199,-0.486 0.207,-0.478C0.214,-0.469 0.225,-0.462 0.238,-0.455C0.252,-0.448 0.27,-0.44 0.293,-0.432C0.301,-0.429 0.318,-0.424 0.344,-0.415C0.37,-0.407 0.389,-0.4 0.402,-0.396C0.46,-0.372 0.5,-0.346 0.523,-0.316C0.546,-0.286 0.557,-0.244 0.557,-0.191C0.557,-0.155 0.55,-0.124 0.536,-0.097C0.522,-0.071 0.503,-0.049 0.479,-0.034C0.455,-0.019 0.428,-0.007 0.399,-0C0.37,0.007 0.338,0.011 0.304,0.011Z" style="fill-rule: nonzero"></path>
                    </g>
                    <g transform="matrix(76.681,0,0,76.681,1336.73,1738.35)">
                        <path d="M0.225,-0L0.225,-0.604L0.005,-0.604L0.005,-0.711L0.571,-0.711L0.571,-0.604L0.349,-0.604L0.349,-0L0.225,-0Z" style="fill-rule: nonzero"></path>
                    </g>
                    <g transform="matrix(76.681,0,0,76.681,1396.28,1738.35)">
                        <path d="M0.256,-0.289L0.446,-0.289C0.409,-0.4 0.377,-0.492 0.352,-0.566C0.331,-0.504 0.299,-0.412 0.256,-0.289ZM0.006,-0L0.292,-0.711L0.417,-0.711L0.706,-0L0.565,-0L0.497,-0.173L0.209,-0.173L0.142,-0L0.006,-0Z" style="fill-rule: nonzero"></path>
                    </g>
                    <g transform="matrix(76.681,0,0,76.681,1466.21,1738.35)">
                        <path d="M0.093,-0L0.093,-0.711L0.291,-0.711C0.433,-0.711 0.54,-0.681 0.61,-0.62C0.68,-0.56 0.715,-0.473 0.715,-0.36C0.715,-0.242 0.681,-0.153 0.612,-0.092C0.543,-0.031 0.443,-0 0.311,-0L0.093,-0ZM0.217,-0.106L0.317,-0.106C0.403,-0.106 0.469,-0.128 0.515,-0.171C0.561,-0.214 0.584,-0.277 0.584,-0.36C0.584,-0.439 0.561,-0.5 0.514,-0.542C0.468,-0.584 0.397,-0.604 0.302,-0.604L0.217,-0.604L0.217,-0.106Z" style="fill-rule: nonzero"></path>
                    </g>
                    <g transform="matrix(76.681,0,0,76.681,1540.36,1738.35)">
                        <path d="M0.225,-0L0.225,-0.604L0.005,-0.604L0.005,-0.711L0.571,-0.711L0.571,-0.604L0.349,-0.604L0.349,-0L0.225,-0Z" style="fill-rule: nonzero"></path>
                    </g>
                    <g transform="matrix(76.681,0,0,76.681,1637.76,1738.35)">
                        <path d="M0.093,-0L0.093,-0.711L0.542,-0.711L0.542,-0.604L0.217,-0.604L0.217,-0.415L0.524,-0.415L0.524,-0.308L0.218,-0.308L0.218,-0.106L0.556,-0.106L0.556,-0L0.093,-0Z" style="fill-rule: nonzero"></path>
                    </g>
                    <g transform="matrix(76.681,0,0,76.681,1699.86,1738.35)">
                        <rect x="0.054" y="-0.132" width="0.142" height="0.132" style="fill-rule: nonzero"></rect>
                    </g>
                    <g transform="matrix(76.681,0,0,76.681,1735.38,1738.35)">
                        <path d="M0.279,-0L0.008,-0.711L0.147,-0.711C0.155,-0.691 0.182,-0.612 0.231,-0.475C0.279,-0.338 0.317,-0.234 0.343,-0.163C0.372,-0.24 0.438,-0.423 0.542,-0.711L0.672,-0.711L0.402,-0L0.279,-0Z" style="fill-rule: nonzero"></path>
                    </g>
                    <g transform="matrix(76.681,0,0,76.681,1802.87,1738.35)">
                        <rect x="0.054" y="-0.132" width="0.142" height="0.132" style="fill-rule: nonzero"></rect>
                    </g>
                </g>
                <g transform="matrix(0.287557,0,0,0.287557,70.3971,621.418)">
                    <g id="text941-0">
                        <path d="M6.225,-13.305L10.232,-13.305C13.632,-13.305 15.332,-14.561 15.332,-17.075C15.332,-18.373 14.868,-19.271 13.938,-19.767C13.009,-20.264 11.605,-20.512 9.725,-20.512L6.225,-20.512L6.225,-13.305ZM6.241,-2.582L10.897,-2.582C12.682,-2.582 14.047,-2.93 14.992,-3.627C15.937,-4.324 16.409,-5.327 16.409,-6.637C16.409,-8.178 15.958,-9.258 15.055,-9.876C14.152,-10.493 12.629,-10.802 10.486,-10.802L6.241,-10.802L6.241,-2.582ZM3.2,0L3.2,-23.062L9.298,-23.062C9.984,-23.062 10.62,-23.043 11.206,-23.006C11.792,-22.969 12.407,-22.901 13.051,-22.8C13.696,-22.7 14.274,-22.565 14.786,-22.397C15.298,-22.228 15.794,-21.998 16.275,-21.708C16.755,-21.417 17.154,-21.079 17.471,-20.694C17.787,-20.308 18.041,-19.839 18.231,-19.284C18.421,-18.73 18.516,-18.115 18.516,-17.439C18.516,-16.161 18.197,-15.074 17.558,-14.176C16.919,-13.278 15.971,-12.655 14.715,-12.307C16.267,-12.043 17.473,-11.404 18.334,-10.39C19.194,-9.377 19.625,-8.099 19.625,-6.557C19.625,-4.657 18.912,-3.089 17.486,-1.853C16.061,-0.618 14.028,0 11.388,0L3.2,0Z" style="fill-rule: nonzero; stroke: #000; stroke-width: 1.8px"></path>
                        <path d="M33.512,0.364C31.432,0.364 29.869,-0.23 28.824,-1.418C27.779,-2.606 27.256,-4.203 27.256,-6.209L27.256,-16.251L30.155,-16.251L30.155,-6.209C30.155,-4.815 30.485,-3.767 31.145,-3.065C31.804,-2.363 32.757,-2.012 34.003,-2.012C35.429,-2.012 36.543,-2.418 37.346,-3.231C38.148,-4.044 38.549,-5.095 38.549,-6.383L38.549,-16.251L41.464,-16.251L41.464,-4.023C41.464,-2.577 41.511,-1.235 41.606,0L38.644,0L38.565,-2.613C38.111,-1.779 37.467,-1.074 36.633,-0.499C35.799,0.077 34.758,0.364 33.512,0.364ZM36.078,-18.722L36.078,-21.715L39.024,-21.715L39.024,-18.722L36.078,-18.722ZM29.695,-18.722L29.695,-21.715L32.657,-21.715L32.657,-18.722L29.695,-18.722Z" style="fill-rule: nonzero; stroke: #000; stroke-width: 1.8px"></path>
                        <path d="M50.362,0L50.362,-12.259C50.362,-12.619 50.344,-13.131 50.307,-13.796C50.27,-14.461 50.235,-15.037 50.204,-15.522L50.156,-16.251L53.245,-16.251L53.277,-13.717C54.259,-15.66 55.705,-16.631 57.616,-16.631C58.218,-16.631 58.767,-16.568 59.264,-16.441L59.248,-13.859C58.625,-14.028 58.028,-14.113 57.458,-14.113C56.212,-14.113 55.209,-13.677 54.449,-12.806C53.688,-11.935 53.308,-10.681 53.308,-9.044L53.308,0L50.362,0Z" style="fill-rule: nonzero; stroke: #000; stroke-width: 1.8px"></path>
                        <path d="M72.898,-2.503C74.545,-2.503 75.797,-3.038 76.652,-4.11C77.507,-5.182 77.935,-6.621 77.935,-8.426C77.935,-10.211 77.51,-11.634 76.66,-12.695C75.81,-13.756 74.625,-14.287 73.104,-14.287C71.552,-14.287 70.332,-13.727 69.445,-12.608C68.558,-11.489 68.115,-10.021 68.115,-8.205C68.115,-6.399 68.532,-4.997 69.366,-3.999C70.2,-3.002 71.378,-2.503 72.898,-2.503ZM72.534,6.621C70.401,6.621 68.4,6.161 66.531,5.243L66.99,2.724C68.785,3.749 70.596,4.261 72.423,4.261C74.155,4.261 75.496,3.796 76.446,2.867C77.396,1.938 77.872,0.533 77.872,-1.346L77.872,-3.041C77.417,-2.228 76.76,-1.555 75.9,-1.022C75.039,-0.488 73.98,-0.222 72.724,-0.222C70.475,-0.222 68.64,-0.937 67.22,-2.368C65.799,-3.799 65.089,-5.734 65.089,-8.173C65.089,-9.831 65.377,-11.293 65.953,-12.56C66.528,-13.828 67.397,-14.828 68.558,-15.562C69.72,-16.296 71.103,-16.663 72.708,-16.663C73.943,-16.663 74.994,-16.399 75.86,-15.871C76.726,-15.343 77.396,-14.667 77.872,-13.843L77.919,-16.251L80.929,-16.251C80.812,-14.498 80.754,-13.041 80.754,-11.879L80.754,-2.217C80.754,-0.929 80.596,0.243 80.279,1.299C79.962,2.355 79.479,3.284 78.83,4.086C78.18,4.889 77.322,5.512 76.256,5.956C75.189,6.399 73.949,6.621 72.534,6.621Z" style="fill-rule: nonzero; stroke: #000; stroke-width: 1.8px"></path>
                        <path d="M91.49,-9.709L100.819,-9.709C100.714,-11.198 100.281,-12.344 99.52,-13.146C98.76,-13.949 97.747,-14.35 96.479,-14.35C95.149,-14.35 94.038,-13.938 93.145,-13.115C92.253,-12.291 91.701,-11.156 91.49,-9.709ZM96.844,0.348C94.257,0.348 92.203,-0.42 90.682,-1.956C89.162,-3.493 88.401,-5.533 88.401,-8.078C88.401,-10.581 89.133,-12.637 90.595,-14.247C92.058,-15.858 93.993,-16.663 96.4,-16.663C97.921,-16.663 99.222,-16.309 100.305,-15.602C101.387,-14.894 102.189,-13.933 102.712,-12.719C103.235,-11.504 103.496,-10.095 103.496,-8.49C103.496,-8.289 103.48,-8.03 103.449,-7.714L91.411,-7.714C91.443,-5.897 91.965,-4.496 92.979,-3.508C93.993,-2.521 95.334,-2.027 97.002,-2.027C98.945,-2.027 100.666,-2.629 102.166,-3.833L103.037,-1.679C101.294,-0.327 99.23,0.348 96.844,0.348Z" style="fill-rule: nonzero; stroke: #000; stroke-width: 1.8px"></path>
                        <path d="M111.349,0L111.349,-12.259C111.349,-12.619 111.331,-13.131 111.294,-13.796C111.257,-14.461 111.222,-15.037 111.191,-15.522L111.143,-16.251L114.232,-16.251L114.264,-13.717C115.246,-15.66 116.692,-16.631 118.603,-16.631C119.205,-16.631 119.754,-16.568 120.251,-16.441L120.235,-13.859C119.612,-14.028 119.015,-14.113 118.445,-14.113C117.199,-14.113 116.196,-13.677 115.436,-12.806C114.675,-11.935 114.295,-10.681 114.295,-9.044L114.295,0L111.349,0Z" style="fill-rule: nonzero; stroke: #000; stroke-width: 1.8px"></path>
                        <path d="M130.369,0L124.968,-16.251L128.072,-16.251C128.231,-15.723 128.79,-13.872 129.751,-10.699C130.712,-7.526 131.451,-5.1 131.969,-3.421C132.528,-5.1 133.339,-7.508 134.4,-10.644C135.461,-13.78 136.092,-15.649 136.293,-16.251L139.128,-16.251C139.318,-15.66 139.925,-13.788 140.949,-10.636C141.974,-7.484 142.76,-5.074 143.309,-3.405C143.806,-5.074 144.511,-7.476 145.424,-10.612C146.337,-13.748 146.884,-15.628 147.063,-16.251L149.898,-16.251L144.497,0L141.757,0C141.62,-0.412 141.023,-2.215 139.967,-5.409C138.911,-8.603 138.109,-11.04 137.56,-12.719C136.99,-11.029 136.142,-8.603 135.018,-5.441C133.893,-2.278 133.252,-0.465 133.093,0L130.369,0Z" style="fill-rule: nonzero; stroke: #000; stroke-width: 1.8px"></path>
                        <path d="M158.322,-9.709L167.651,-9.709C167.545,-11.198 167.112,-12.344 166.352,-13.146C165.592,-13.949 164.578,-14.35 163.311,-14.35C161.981,-14.35 160.869,-13.938 159.977,-13.115C159.085,-12.291 158.533,-11.156 158.322,-9.709ZM163.675,0.348C161.088,0.348 159.034,-0.42 157.514,-1.956C155.993,-3.493 155.233,-5.533 155.233,-8.078C155.233,-10.581 155.964,-12.637 157.427,-14.247C158.889,-15.858 160.824,-16.663 163.232,-16.663C164.752,-16.663 166.054,-16.309 167.136,-15.602C168.219,-14.894 169.021,-13.933 169.544,-12.719C170.066,-11.504 170.328,-10.095 170.328,-8.49C170.328,-8.289 170.312,-8.03 170.28,-7.714L158.243,-7.714C158.274,-5.897 158.797,-4.496 159.811,-3.508C160.824,-2.521 162.165,-2.027 163.834,-2.027C165.777,-2.027 167.498,-2.629 168.997,-3.833L169.868,-1.679C168.126,-0.327 166.062,0.348 163.675,0.348Z" style="fill-rule: nonzero; stroke: #000; stroke-width: 1.8px"></path>
                        <path d="M178.181,0L178.181,-12.259C178.181,-12.619 178.162,-13.131 178.125,-13.796C178.088,-14.461 178.054,-15.037 178.022,-15.522L177.975,-16.251L181.064,-16.251L181.095,-13.717C182.077,-15.66 183.524,-16.631 185.435,-16.631C186.037,-16.631 186.586,-16.568 187.082,-16.441L187.067,-13.859C186.444,-14.028 185.847,-14.113 185.277,-14.113C184.031,-14.113 183.028,-13.677 182.267,-12.806C181.507,-11.935 181.127,-10.681 181.127,-9.044L181.127,0L178.181,0Z" style="fill-rule: nonzero; stroke: #000; stroke-width: 1.8px"></path>
                        <path d="M194.064,0L194.064,-23.537L196.979,-23.537L196.979,-9.298L204.027,-16.251L208.019,-16.251L199.782,-8.506L208.589,0L204.724,0L196.979,-7.682L196.979,0L194.064,0Z" style="fill-rule: nonzero; stroke: #000; stroke-width: 1.8px"></path>
                        <path d="M220.354,0.348C218.95,0.348 217.712,0.137 216.64,-0.285C215.568,-0.707 214.737,-1.151 214.145,-1.616L214.953,-3.786C215.555,-3.342 216.323,-2.941 217.258,-2.582C218.192,-2.223 219.145,-2.043 220.117,-2.043C222.271,-2.043 223.348,-2.835 223.348,-4.419C223.348,-5.084 223.105,-5.581 222.619,-5.908C222.133,-6.235 221.188,-6.637 219.784,-7.112L218.39,-7.587C217.852,-7.777 217.395,-7.957 217.02,-8.125C216.645,-8.294 216.268,-8.508 215.887,-8.767C215.507,-9.026 215.201,-9.305 214.969,-9.606C214.737,-9.907 214.549,-10.272 214.407,-10.699C214.264,-11.127 214.193,-11.61 214.193,-12.149C214.193,-12.919 214.354,-13.603 214.676,-14.2C214.998,-14.796 215.439,-15.266 215.998,-15.609C216.558,-15.953 217.176,-16.211 217.852,-16.386C218.527,-16.56 219.256,-16.647 220.037,-16.647C222.181,-16.647 223.987,-16.177 225.454,-15.237L224.647,-13.146C223.221,-13.907 221.795,-14.287 220.37,-14.287C219.325,-14.287 218.517,-14.107 217.947,-13.748C217.376,-13.389 217.091,-12.883 217.091,-12.228C217.091,-11.636 217.263,-11.201 217.606,-10.921C217.949,-10.641 218.633,-10.317 219.657,-9.947C220.576,-9.641 221.12,-9.456 221.289,-9.393C221.954,-9.16 222.487,-8.96 222.888,-8.791C223.29,-8.622 223.72,-8.397 224.179,-8.118C224.639,-7.838 224.992,-7.545 225.241,-7.238C225.489,-6.932 225.695,-6.549 225.858,-6.09C226.022,-5.631 226.104,-5.111 226.104,-4.53C226.104,-3.664 225.94,-2.906 225.613,-2.257C225.285,-1.608 224.842,-1.101 224.282,-0.737C223.723,-0.372 223.115,-0.1 222.461,0.079C221.806,0.259 221.104,0.348 220.354,0.348Z" style="fill-rule: nonzero; stroke: #000; stroke-width: 1.8px"></path>
                        <path d="M242.035,0L240.688,0C238.386,-0.021 236.81,-0.433 235.96,-1.235C235.11,-2.038 234.685,-3.5 234.685,-5.623L234.685,-14.303L231.565,-14.303L231.565,-16.251L234.749,-16.251L234.749,-20.432L237.6,-21.272L237.6,-16.251L242.003,-16.251L242.003,-14.303L237.6,-14.303L237.6,-5.465C237.6,-4.884 237.639,-4.414 237.719,-4.055C237.798,-3.696 237.922,-3.392 238.091,-3.144C238.26,-2.896 238.529,-2.714 238.899,-2.598C239.268,-2.481 239.685,-2.4 240.15,-2.352C240.615,-2.305 241.243,-2.281 242.035,-2.281L242.035,0Z" style="fill-rule: nonzero; stroke: #000; stroke-width: 1.8px"></path>
                        <path d="M256.588,-2.027C258.203,-2.027 259.436,-2.59 260.286,-3.714C261.136,-4.839 261.561,-6.351 261.561,-8.252C261.561,-10.047 261.128,-11.502 260.262,-12.616C259.397,-13.73 258.161,-14.287 256.556,-14.287C254.867,-14.287 253.581,-13.727 252.699,-12.608C251.818,-11.489 251.377,-10.021 251.377,-8.205C251.377,-6.378 251.82,-4.892 252.707,-3.746C253.594,-2.6 254.888,-2.027 256.588,-2.027ZM256.176,0.348C254.962,0.348 253.861,0.121 252.873,-0.333C251.886,-0.787 251.073,-1.402 250.434,-2.178C249.795,-2.954 249.304,-3.852 248.961,-4.871C248.618,-5.89 248.446,-6.975 248.446,-8.125C248.446,-9.709 248.755,-11.143 249.373,-12.426C249.991,-13.709 250.891,-14.736 252.074,-15.507C253.256,-16.277 254.624,-16.663 256.176,-16.663C257.327,-16.663 258.375,-16.383 259.32,-15.823C260.265,-15.264 260.98,-14.546 261.466,-13.669L261.466,-16.251L264.349,-16.251L264.349,0L261.435,0L261.435,-2.772C260.97,-1.8 260.278,-1.037 259.36,-0.483C258.441,0.071 257.38,0.348 256.176,0.348Z" style="fill-rule: nonzero; stroke: #000; stroke-width: 1.8px"></path>
                        <path d="M281.405,0L280.058,0C277.756,-0.021 276.18,-0.433 275.33,-1.235C274.48,-2.038 274.055,-3.5 274.055,-5.623L274.055,-14.303L270.935,-14.303L270.935,-16.251L274.119,-16.251L274.119,-20.432L276.97,-21.272L276.97,-16.251L281.373,-16.251L281.373,-14.303L276.97,-14.303L276.97,-5.465C276.97,-4.884 277.009,-4.414 277.088,-4.055C277.168,-3.696 277.292,-3.392 277.461,-3.144C277.63,-2.896 277.899,-2.714 278.268,-2.598C278.638,-2.481 279.055,-2.4 279.52,-2.352C279.984,-2.305 280.613,-2.281 281.405,-2.281L281.405,0Z" style="fill-rule: nonzero; stroke: #000; stroke-width: 1.8px"></path>
                        <path d="M297.367,0L296.021,0C293.719,-0.021 292.143,-0.433 291.293,-1.235C290.443,-2.038 290.018,-3.5 290.018,-5.623L290.018,-14.303L286.898,-14.303L286.898,-16.251L290.081,-16.251L290.081,-20.432L292.932,-21.272L292.932,-16.251L297.336,-16.251L297.336,-14.303L292.932,-14.303L292.932,-5.465C292.932,-4.884 292.972,-4.414 293.051,-4.055C293.13,-3.696 293.254,-3.392 293.423,-3.144C293.592,-2.896 293.861,-2.714 294.231,-2.598C294.601,-2.481 295.018,-2.4 295.482,-2.352C295.947,-2.305 296.575,-2.281 297.367,-2.281L297.367,0Z" style="fill-rule: nonzero; stroke: #000; stroke-width: 1.8px"></path>
                    </g>
                </g>
            </g>
        </g>
    </g>
</svg>
