<svg viewBox="0 0 1347 378" xmlns="http://www.w3.org/2000/svg" xml:space="preserve" style="fill-rule:evenodd;clip-rule:evenodd"><g transform="matrix(5.06775 0 0 5.15 -14742.729 -1780.56)"><g id="g5690" transform="matrix(.4304 0 0 -.42353 2931.63 347.931)"><path id="path5692" d="M0 0c.638 1.02 1.179 1.624 1.627 1.817.442.193.814.145 1.1-.142.286-.289.731-.609 1.341-.958A3.824 3.824 0 0 1 6.029.193c.508 0 1.817-.496 3.923-1.486 2.104-.989 3.731-1.547 4.879-1.672l2.202-.383.766-7.081c.127-1.216.462-4.419 1.003-9.618.542-5.198 1.086-10.417 1.627-15.644.542-5.233 1.038-9.346 1.483-12.345.83-5.74 1.085-8.77.765-9.091-.317-.314-2.837-.606-7.557-.861l-7.177-.477-.383 4.4C5.647-34.608 4.465-24.877 4.02-24.877c-.193 0-.448-.309-.766-.913-.32-.603-.941-1.836-1.865-3.682a123 123 0 0 0-3.016-5.646c-1.086-1.851-1.707-3.096-1.865-3.731-.162-.638-.082-1.409.238-2.296.193-.896.289-1.502.289-1.82 0-.317-.21-.686-.624-1.1a7.9 7.9 0 0 0-1.292-1.054c-.445-.286-1.004-.808-1.673-1.576-.672-.765-1.261-1.692-1.771-2.772-.445-.834-.828-1.412-1.148-1.727-.321-.32-.59-.476-.814-.476-.224 0-.669.111-1.338.332-.672.224-1.261.368-1.772.431-.255.062-1.167.507-2.726 1.34-1.562.828-3.11 1.8-4.641 2.917-1.53 1.114-2.168 1.931-1.913 2.441.572 1.403.717 2.585.431 3.54-.289.961-1.327 2.645-3.113 5.069-3.251 4.532-5.04 5.842-5.357 3.929a3.53 3.53 0 0 1-.097-.862c0-.834-.175-1.865-.524-3.113-.352-1.241-1.089-3.716-2.203-7.415-1.116-3.699-2.247-8.008-3.395-12.92-.638-2.614-1.117-4.048-1.435-4.303-.193-.253-2.409.224-6.65 1.431-4.246 1.216-6.59 2.013-7.035 2.398-.256.252-.176 1.245.241 2.965.413 1.718 1.544 5.582 3.395 11.58l4.882 16.364c.635 2.231 1.4 4.717 2.296 7.458.765 2.424 1.148 3.943 1.148 4.547 0 .607-.417 1.448-1.245 2.534a8.736 8.736 0 0 0-.572.961c-1.534 2.231-2.203 3.504-2.01 3.827.383.635 1.993 1.862 4.83 3.682 2.838 1.82 4.703 2.82 5.599 3.016.51.19.958.238 1.34.142.383-.097.621-.207.718-.338.096-.124.269-.396.527-.81.252-.414.476-.859.669-1.338.19-.479.572-1.117 1.148-1.916.572-.8 1.275-1.61 2.106-2.438 1.786-1.854 2.679-3.062 2.679-3.637 0-.638 1.641-3.509 4.926-8.612 3.286-5.105 5.151-7.656 5.599-7.656.255 0 1.355 1.868 3.302 5.595a868.12 868.12 0 0 1 6.268 12.3C-1.979-3.764-.575-1.023 0 0" style="fill:#231f20;fill-rule:nonzero"/></g><g id="g5694" transform="matrix(.4304 0 0 -.42353 2955.98 348.164)"><path id="path5696" d="M0 0c2.619.921 4.161 1.344 4.623 1.276.258-.063.817-1.276 1.673-3.64.85-2.353 1.752-4.93 2.701-7.719.953-2.786 1.559-4.504 1.82-5.159.065-.136 2.296-6.953 6.69-20.46 1.899-5.834 3.095-9.752 3.588-11.75.494-2.001.573-3.163.247-3.492-.394-.391-2.46-1.196-6.196-2.407-3.737-1.216-5.967-1.823-6.687-1.823-.46 0-1.265 1.69-2.413 5.066a105.538 105.538 0 0 0-2.999 10.769c-.785 3.608-2.146 8.246-4.082 13.918-1.93 5.666-3.095 8.439-3.489 8.311-.394-.136-1.429-3.759-3.098-10.868-1.673-7.115-2.999-13.425-3.983-18.93-.918-5.312-1.641-8.198-2.163-8.654-.527-.462-3.05-.17-7.574.882-.329.065-.785.164-1.375.294-.983.199-1.672.343-2.066.443-.394.099-.871.294-1.426.592a29.51 29.51 0 0 0-1.083.587c-.164.102-.326.408-.493.935-.162.525-.227.95-.193 1.279.031.329.111.983.244 1.97.13.981.295 1.817.493 2.506.196.686.49 1.851.884 3.489 1.18 4.785 2.129 8.952 2.852 12.492C-19.31-10.295-16.914-.164-16.325.295c.326.261 2.489.065 6.492-.59 2.817-.527 4.702-.771 5.652-.74C-3.229-1.003-1.837-.658 0 0" style="fill:#231f20;fill-rule:nonzero"/></g><g id="g5698" transform="matrix(.4304 0 0 -.42353 2985.94 349.674)"><path id="path5700" d="M0 0c1.723 1.083 2.934 1.658 3.637 1.721.7 0 1.993-1.69 3.875-5.074 1.882-3.376 3.013-5.579 3.396-6.599.192-.514 0-.987-.573-1.435-.83-.638-5.615-3.413-14.355-8.325-7.336-4.15-11.483-6.602-12.438-7.367l-1.437-1.148 2.871-2.107c1.851-1.337 5.009-3.271 9.474-5.791 4.467-2.517 8.421-4.734 11.866-6.65 3.444-1.91 5.23-3.058 5.357-3.444.193-.572-.859-2.789-3.158-6.65-2.296-3.858-3.73-5.788-4.306-5.788-.189 0-3.602 1.944-10.238 5.836-6.633 3.889-10.205 6.03-10.715 6.412a89.595 89.595 0 0 1-5.074 3.11c-1.531.862-2.741 1.468-3.634 1.817-.893.348-1.403.368-1.531.045-.193-.57-.351-2.679-.479-6.313l-.193-5.456H-41.72l-.383 13.495a638.74 638.74 0 0 0 0 26.983L-41.72.765h14.065l.193-7.75c.128-5.102.383-7.846.765-8.229.255-.192 1.579.287 3.972 1.432 2.392 1.151 4.099 2.171 5.119 3.064.7.576 1.148.862 1.338.862.193 0 2.424 1.293 6.698 3.875C-5.295-3.399-2.106-1.403 0 0" style="fill:#231f20;fill-rule:nonzero"/></g><g id="g5702" transform="matrix(.4304 0 0 -.42353 2993.18 348.701)"><path id="path5704" d="M0 0c.128.383 1.817.607 5.071.669 3.254.062 10.366 0 21.339-.19C43.889.156 53.042-.13 53.872-.386c.511-.127.814-.558.91-1.292.094-.731.049-2.631-.144-5.689-.255-4.47-.51-6.925-.766-7.373-.189-.255-.589-.397-1.196-.428-.606-.034-1.993-.017-4.161.048-6.188.252-12.631.445-19.329.573l-14.449.192v-5.164h39.135l.193-6.795c.125-4.533-.096-7.053-.672-7.56-.572-.516-7.27-.799-20.094-.862l-19.233-.193v-5.742l38.562-.669v-13.493l-26.6-.187c-17.799-.128-26.89.034-27.272.476-.256.258-.19 9.173.192 26.745C-.669-10.225-.32-.958 0 0" style="fill:#231f20;fill-rule:nonzero"/></g><g id="g5706" transform="matrix(.4304 0 0 -.42353 3031.94 359.522)"><path id="path5708" d="M0 0c.507.383-1.947 1.882-7.367 4.499-1.724.824-2.679 1.238-2.872 1.238-.45 0-.813-1.383-1.1-4.158-.289-2.775-.207-4.292.239-4.544.317-.193 2.154.142 5.502 1.003C-2.248-1.1-.383-.448 0 0m-24.497 27.366c.635.827 2.106.779 4.402-.145 2.296-.924 7.56-3.526 15.789-7.795C7.875 13.042 16.33 8.898 21.05 6.985l3.637-1.435L26.41-.482c1.083-4.017 1.627-6.219 1.627-6.599 0-.383-1.485-.972-4.45-1.772a560.507 560.507 0 0 0-9.187-2.386c-3.158-.803-4.895-1.361-5.213-1.678-.258-.196.539-.8 2.393-1.82 1.337-.828 3.982-2.2 7.939-4.116 4.465-2.234 6.761-3.473 6.891-3.731.125-.19.049-.654-.241-1.389-.286-.731-.827-1.927-1.624-3.585-.799-1.656-1.423-3.031-1.868-4.113-1.083-2.492-1.913-3.734-2.486-3.734-.382 0-2.715 1.089-6.987 3.252-4.4 2.233-8.453 4.277-12.152 6.125-7.144 3.634-11.325 5.534-12.535 5.698-1.211.153-1.914-.533-2.103-2.064-.066-.572-.097-2.009-.097-4.303v-3.155c0-.64-.13-1.312-.383-2.012-.257-.7-.479-1.148-.671-1.341-.19-.187-.669-.349-1.435-.479a8.803 8.803 0 0 0-2.199-.094c-.706.06-1.82.19-3.351.386-4.275.445-6.585.828-6.936 1.145-.355.318.141 7.943 1.482 22.87.128 1.213.287 2.871.479 4.975.956 10.139 1.245 15.882.862 17.22-.255.964-.958 1.755-2.106 2.396a8.826 8.826 0 0 0-.862.476c-.513.323-.703.768-.572 1.341.127.575.731 2.043 1.817 4.399 1.593 3.45 2.616 5.425 3.061 5.936" style="fill:#231f20;fill-rule:nonzero"/></g><g id="g5710" transform="matrix(.4304 0 0 -.42353 3068.92 348.256)"><path id="path5712" d="M0 0c.575.635 1.182.065 1.82-1.721C2.837-4.847 3.254-8.26 3.059-11.962c-.06-1.276-.253-2.044-.567-2.296-.448-.255-3.195-.624-8.232-1.1-5.04-.479-9.936-.972-14.692-1.483-4.751-.51-7.126-1.02-7.126-1.53 0-.19 2.457-1.452 7.367-3.782 4.912-2.327 9.904-4.657 14.975-6.984 5.071-2.33 7.736-3.62 7.991-3.875.32-.318.159-1.12-.479-2.39-.445-.896-.669-1.633-.669-2.2 0-.578.255-1.629.763-3.16.64-2.237.737-3.578.289-4.023-.445-.447-4.916-2.103-13.397-4.972l-24.4-8.328c-7.847-2.678-12.025-3.92-12.538-3.73-.377.127-1.324 2.185-2.818 6.171-1.502 3.985-1.964 6.27-1.392 6.843.386.382 3.065 1.42 8.042 3.109 4.975 1.69 9.839 3.382 14.59 5.072 4.754 1.692 7.132 2.726 7.132 3.109 0 .448-1.202 1.293-3.591 2.54-2.39 1.242-4.417 2.086-6.075 2.531-1.4.383-4.961 1.772-10.669 4.164-5.709 2.396-8.757 3.779-9.137 4.165-.447.445-.447 1.051 0 1.817.445.7.445 3.509 0 8.418-.447 4.913-.419 7.529.094 7.844.507.516 9.201 1.647 26.076 3.404C-8.532-.876-.062 0 0 0" style="fill:#231f20;fill-rule:nonzero"/></g><g id="g5714" transform="matrix(.4304 0 0 -.42353 3087.46 355.753)"><path id="path5716" d="M0 0c-.065.575-1.196 1.165-3.396 1.769a84.22 84.22 0 0 1-7.18 1.627c-2.58.479-4 .751-4.255.813-.706.321-1.148.159-1.341-.476-.385-.83-.448-3.846-.19-9.042.253-5.202.539-7.801.859-7.801.635 0 3.41 2.061 8.326 6.171C-2.268-2.823.125-.51 0 0m-31.099 22.584v.093c.318.703.797 1.021 1.434.958.635-.065 2.614-.572 5.933-1.53 3.444-.959 6.509-1.82 9.185-2.583 3.381-.958 6.76-1.947 10.145-2.968a625.552 625.552 0 0 1 8.756-2.582c2.455-.706 5.244-1.406 8.371-2.106 5.102-1.148 7.86-1.899 8.277-2.251.417-.351.241-1.706-.527-4.062-.508-1.661-.783-2.764-.814-3.302-.031-.545.207-1.168.72-1.868.703-1.089 1.052-1.817 1.052-2.2 0-.383-3.158-3.127-9.471-8.229L-2.2-21.433c-4.725-4.019-7.659-6.477-8.807-7.37-1.145-.896-1.882-1.338-2.2-1.338-.379 0-1.02-.513-1.913-1.53-.573-.638-.941-1.438-1.103-2.393-.156-.958-.303-2.996-.428-6.126l-.19-6.981h-14.068V6.123l2.679.193c1.848.127 2.778.351 2.778.669 0 .32-1.471.892-4.402 1.723l-4.309 1.244.193 2.583c.127 1.275.493 3.016 1.102 5.218.601 2.2 1.197 3.807 1.769 4.831" style="fill:#231f20;fill-rule:nonzero"/></g><g id="g5718" transform="matrix(.4304 0 0 -.42353 3109.57 361.062)"><path id="path5720" d="M0 0c0 .507-.289 1.148-.862 1.916-.385.632-.655.938-.816.907-.159-.034-.397-.365-.714-1.006A5.105 5.105 0 0 1-3.061.241c-.131-.544-.148-.975-.051-1.293.096-.32.275-.479.527-.479.64 0 1.227.159 1.769.479C-.275-.734 0-.386 0 0m-9.952 24.593c.189.383.493.604.909.669.414.06.987-.031 1.721-.286.734-.255 1.548-.547 2.441-.862.893-.323 2.024-.671 3.396-1.054a23.363 23.363 0 0 1 4.067-.763l2.869-.479L16.172.386h9.374l.385-4.406c.38-4.084.508-6.763.38-8.036-.125-1.275-.638-2.075-1.531-2.392-1.082-.383-1.627-.686-1.627-.907 0-.227.803-1.84 2.393-4.836 1.02-1.976 1.613-3.269 1.771-3.878.159-.601.049-1.128-.334-1.576-.573-.51-2.554-1.672-5.933-3.492-3.384-1.817-5.136-2.662-5.264-2.534-.065.127-1.352 2.568-3.875 7.319-2.52 4.75-3.971 7.381-4.351 7.897-.32.38-1.023.601-2.109.669-1.083.062-3.093.031-6.026-.099a124.644 124.644 0 0 0-3.734-.238c-.762-.032-1.61-.179-2.534-.434-.927-.252-1.516-.476-1.769-.666-.258-.193-.623-.641-1.099-1.341-.48-.7-.8-1.372-.961-2.01-.156-.638-.462-1.658-.908-3.064-.892-3.059-1.595-4.845-2.103-5.355-.516-.575-2.679-.082-6.511 1.483-3.827 1.562-5.916 2.503-6.267 2.823-.349.32-.207 1.403.43 3.254.638 1.783.959 2.855.959 3.206 0 .346-.349.584-1.052.717-.576.128-.955.607-1.151 1.435-.187.83-.38 2.644-.573 5.454-.323 4.339-.334 6.712-.045 7.129.284.414 1.355.621 3.203.621 2.424 0 4.051.3 4.881.909.828.607 1.562 1.962 2.2 4.068 1.724 6.123 4.272 13.621 7.657 22.487" style="fill:#231f20;fill-rule:nonzero"/></g><g id="g5722" transform="matrix(.4304 0 0 -.42353 3123.94 349.714)"><path id="path5724" d="M0 0c.193.255 9.15.3 26.889.147 17.734-.164 26.887-.402 27.462-.722.383-.19.559-2.013.528-5.454-.034-3.444-.238-5.678-.624-6.699l-.669-1.72-38.083.57.19-11.96c.065-7.908.32-12.149.765-12.725.513-.578 6.795-.686 18.85-.337 12.059.354 18.247.207 18.567-.428.38-.575.669-2.82.859-6.746.19-3.926.099-6.013-.286-6.265-.383-.193-9.442-.385-27.176-.575L.578-53.107l-.292 6.316c-.19 4.209-.031 6.567.482 7.083.573.567.508 7.203-.19 19.899C-.128-7.112-.317-.51 0 0" style="fill:#231f20;fill-rule:nonzero"/></g><g id="g5726" transform="matrix(.4304 0 0 -.42353 3172.01 348.256)"><path id="path5728" d="M0 0c1.02.383 1.738.193 2.154-.575.414-.766.845-2.773 1.29-6.024.635-4.405.751-6.815.335-7.228-.414-.414-4.672-1.069-12.773-1.962l-25.07-2.871-.196-2.58c-.127-1.789-.028-2.84.292-3.163.763-.698 4.337-.763 10.715-.188 1.469.188 5.999.669 13.59 1.435 5.992.638 9.759.955 11.287.955H4.02l.669-4.306c.447-2.868.731-5.164.861-6.885l.19-2.588-5.165-.476c-21.563-1.851-32.757-3.195-33.587-4.02-.448-.445-.511-1.307-.193-2.585l.578-1.913 8.609.096c5.678 0 12.09.159 19.233.479l10.619.479.482-4.02c.635-6.505.572-9.983-.19-10.431-.321-.252-6.157-.604-17.513-1.052l-26.314-1.051c-6.253-.255-9.536-.128-9.859.382-.124.255-.269 1.885-.431 4.879a841.91 841.91 0 0 0-.476 10.621c-.159 4.085-.368 7.143-.621 9.19a59.428 59.428 0 0 0-.334 7.22c.031 2.455.079 4.085.142 4.878.062.803-.063 1.744-.383 2.827-.513.892-.896 3.509-1.148 7.846-.318 3.951-.289 6.125.096 6.508.128.125.448.286.956.476.64.256 9.028 1.231 25.166 2.92C-8.453-1.037-.255-.128 0 0" style="fill:#231f20;fill-rule:nonzero"/></g></g><path d="M.093 0v-.711h.198c.142 0 .249.03.319.091.07.06.105.147.105.26 0 .118-.034.207-.103.268C.543-.031.443 0 .311 0H.093Zm.124-.106h.1c.086 0 .152-.022.198-.065.046-.043.069-.106.069-.189 0-.079-.023-.14-.07-.182C.468-.584.397-.604.302-.604H.217v.498Z" style="fill-rule:nonzero" transform="matrix(80.24849 0 0 80.24847 -.97 270.76)"/><path d="M.256-.289h.19L.352-.566l-.096.277ZM.006 0l.286-.711h.125L.706 0H.565L.497-.173H.209L.142 0H.006Z" style="fill-rule:nonzero" transform="matrix(80.24849 0 0 80.24847 76.64 270.76)"/><path d="M.215-.406h.119c.089 0 .133-.034.133-.103 0-.037-.009-.063-.028-.076C.42-.598.39-.604.347-.604H.215v.198ZM.093 0v-.711h.256c.039 0 .073.003.101.009a.244.244 0 0 1 .078.03c.023.014.04.034.052.06a.237.237 0 0 1 .018.097.17.17 0 0 1-.036.107.187.187 0 0 1-.107.062.216.216 0 0 1 .094.111L.645 0H.511L.429-.211a.166.166 0 0 0-.043-.071C.37-.295.347-.301.315-.301H.217V0H.093Z" style="fill-rule:nonzero" transform="matrix(80.24849 0 0 80.24847 149.813 270.76)"/><path d="M.093 0v-.711h.145l.107.239.142.313.077-.171.092-.209.076-.172h.145V0H.761v-.508L.532 0H.441L.37-.158.286-.344.212-.5V0H.093Z" style="fill-rule:nonzero" transform="matrix(80.24849 0 0 80.24847 220.254 270.76)"/><path d="M.304.011A.472.472 0 0 1 .163-.01a.268.268 0 0 1-.107-.06l.053-.089a.315.315 0 0 0 .09.046.32.32 0 0 0 .097.018c.044 0 .077-.008.098-.024.021-.016.031-.041.031-.074a.139.139 0 0 0-.003-.032.067.067 0 0 0-.013-.025.13.13 0 0 0-.03-.024.46.46 0 0 0-.055-.023L.275-.313A.586.586 0 0 1 .224-.33a.32.32 0 0 1-.128-.078.183.183 0 0 1-.039-.123.177.177 0 0 1 .12-.172.475.475 0 0 1 .273-.003.288.288 0 0 1 .1.064L.486-.56A.23.23 0 0 0 .32-.617a.191.191 0 0 0-.095.02.065.065 0 0 0-.036.061c0 .013.001.024.003.033a.067.067 0 0 0 .015.025.096.096 0 0 0 .031.023.46.46 0 0 0 .055.023l.051.017.058.019c.058.024.098.05.121.08.023.03.034.072.034.125a.2.2 0 0 1-.021.094.165.165 0 0 1-.057.063.272.272 0 0 1-.08.034.406.406 0 0 1-.095.011Z" style="fill-rule:nonzero" transform="matrix(80.24849 0 0 80.24847 314.159 270.76)"/><path d="M.225 0v-.604h-.22v-.107h.566v.107H.349V0H.225Z" style="fill-rule:nonzero" transform="matrix(80.24849 0 0 80.24847 379.43 270.76)"/><path d="M.256-.289h.19L.352-.566l-.096.277ZM.006 0l.286-.711h.125L.706 0H.565L.497-.173H.209L.142 0H.006Z" style="fill-rule:nonzero" transform="matrix(80.24849 0 0 80.24847 441.75 270.76)"/><path d="M.093 0v-.711h.198c.142 0 .249.03.319.091.07.06.105.147.105.26 0 .118-.034.207-.103.268C.543-.031.443 0 .311 0H.093Zm.124-.106h.1c.086 0 .152-.022.198-.065.046-.043.069-.106.069-.189 0-.079-.023-.14-.07-.182C.468-.584.397-.604.302-.604H.217v.498Z" style="fill-rule:nonzero" transform="matrix(80.24849 0 0 80.24847 514.934 270.76)"/><path d="M.225 0v-.604h-.22v-.107h.566v.107H.349V0H.225Z" style="fill-rule:nonzero" transform="matrix(80.24849 0 0 80.24847 592.534 270.76)"/><path d="M.093 0v-.711h.449v.107H.217v.189h.307v.107H.218v.202h.338V0H.093Z" style="fill-rule:nonzero" transform="matrix(80.24849 0 0 80.24847 694.465 270.76)"/><path style="fill-rule:nonzero" d="M.054-.132h.142V0H.054z" transform="matrix(80.24849 0 0 80.24847 759.455 270.76)"/><path d="M.279 0 .008-.711h.139l.084.236c.048.137.086.241.112.312l.199-.548h.13L.402 0H.279Z" style="fill-rule:nonzero" transform="matrix(80.24849 0 0 80.24847 796.627 270.76)"/><path style="fill-rule:nonzero" d="M.054-.132h.142V0H.054z" transform="matrix(80.24849 0 0 80.24847 867.257 270.76)"/><g transform="matrix(1.73364 0 0 1.73364 .925 359.389)"><g id="text941-0"><path d="M6.225-13.305h4.007c3.4 0 5.1-1.256 5.1-3.77 0-1.298-.464-2.196-1.394-2.692-.929-.497-2.333-.745-4.213-.745h-3.5v7.207Zm.016 10.723h4.656c1.785 0 3.15-.348 4.095-1.045.945-.697 1.417-1.7 1.417-3.01 0-1.541-.451-2.621-1.354-3.239-.903-.617-2.426-.926-4.569-.926H6.241v8.22ZM3.2 0v-23.062h6.098c.686 0 1.322.019 1.908.056.586.037 1.201.105 1.845.206.645.1 1.223.235 1.735.403a7.327 7.327 0 0 1 1.489.689c.48.291.879.629 1.196 1.014.316.386.57.855.76 1.41a5.66 5.66 0 0 1 .285 1.845c0 1.278-.319 2.365-.958 3.263-.639.898-1.587 1.521-2.843 1.869 1.552.264 2.758.903 3.619 1.917.86 1.013 1.291 2.291 1.291 3.833 0 1.9-.713 3.468-2.139 4.704C16.061-.618 14.028 0 11.388 0H3.2ZM33.512.364c-2.08 0-3.643-.594-4.688-1.782-1.045-1.188-1.568-2.785-1.568-4.791v-10.042h2.899v10.042c0 1.394.33 2.442.99 3.144.659.702 1.612 1.053 2.858 1.053 1.426 0 2.54-.406 3.343-1.219.802-.813 1.203-1.864 1.203-3.152v-9.868h2.915v12.228c0 1.446.047 2.788.142 4.023h-2.962l-.079-2.613c-.454.834-1.098 1.539-1.932 2.114-.834.576-1.875.863-3.121.863Zm2.566-19.086v-2.993h2.946v2.993h-2.946Zm-6.383 0v-2.993h2.962v2.993h-2.962ZM50.362 0v-12.259c0-.36-.018-.872-.055-1.537-.037-.665-.072-1.241-.103-1.726l-.048-.729h3.089l.032 2.534c.982-1.943 2.428-2.914 4.339-2.914.602 0 1.151.063 1.648.19l-.016 2.582a6.838 6.838 0 0 0-1.79-.254c-1.246 0-2.249.436-3.009 1.307-.761.871-1.141 2.125-1.141 3.762V0h-2.946ZM72.898-2.503c1.647 0 2.899-.535 3.754-1.607s1.283-2.511 1.283-4.316c0-1.785-.425-3.208-1.275-4.269-.85-1.061-2.035-1.592-3.556-1.592-1.552 0-2.772.56-3.659 1.679s-1.33 2.587-1.33 4.403c0 1.806.417 3.208 1.251 4.206.834.997 2.012 1.496 3.532 1.496Zm-.364 9.124c-2.133 0-4.134-.46-6.003-1.378l.459-2.519c1.795 1.025 3.606 1.537 5.433 1.537 1.732 0 3.073-.465 4.023-1.394.95-.929 1.426-2.334 1.426-4.213v-1.695c-.455.813-1.112 1.486-1.972 2.019-.861.534-1.92.8-3.176.8-2.249 0-4.084-.715-5.504-2.146-1.421-1.431-2.131-3.366-2.131-5.805 0-1.658.288-3.12.864-4.387a6.793 6.793 0 0 1 2.605-3.002c1.162-.734 2.545-1.101 4.15-1.101 1.235 0 2.286.264 3.152.792.866.528 1.536 1.204 2.012 2.028l.047-2.408h3.01c-.117 1.753-.175 3.21-.175 4.372v9.662c0 1.288-.158 2.46-.475 3.516a8.063 8.063 0 0 1-1.449 2.787c-.65.803-1.508 1.426-2.574 1.87-1.067.443-2.307.665-3.722.665ZM91.49-9.709h9.329c-.105-1.489-.538-2.635-1.299-3.437-.76-.803-1.773-1.204-3.041-1.204-1.33 0-2.441.412-3.334 1.235-.892.824-1.444 1.959-1.655 3.406ZM96.844.348c-2.587 0-4.641-.768-6.162-2.304-1.52-1.537-2.281-3.577-2.281-6.122 0-2.503.732-4.559 2.194-6.169 1.463-1.611 3.398-2.416 5.805-2.416 1.521 0 2.822.354 3.905 1.061a6.382 6.382 0 0 1 2.407 2.883c.523 1.215.784 2.624.784 4.229 0 .201-.016.46-.047.776H91.411c.032 1.817.554 3.218 1.568 4.206 1.014.987 2.355 1.481 4.023 1.481 1.943 0 3.664-.602 5.164-1.806l.871 2.154C101.294-.327 99.23.348 96.844.348ZM111.349 0v-12.259c0-.36-.018-.872-.055-1.537-.037-.665-.072-1.241-.103-1.726l-.048-.729h3.089l.032 2.534c.982-1.943 2.428-2.914 4.339-2.914.602 0 1.151.063 1.648.19l-.016 2.582a6.838 6.838 0 0 0-1.79-.254c-1.246 0-2.249.436-3.009 1.307-.761.871-1.141 2.125-1.141 3.762V0h-2.946ZM130.369 0l-5.401-16.251h3.104c.159.528.718 2.379 1.679 5.552.961 3.173 1.7 5.599 2.218 7.278.559-1.679 1.37-4.087 2.431-7.223s1.692-5.005 1.893-5.607h2.835c.19.591.797 2.463 1.821 5.615 1.025 3.152 1.811 5.562 2.36 7.231a2965.305 2965.305 0 0 0 3.754-12.846h2.835L144.497 0h-2.74l-1.79-5.409a2489.095 2489.095 0 0 1-2.407-7.31c-.57 1.69-1.418 4.116-2.542 7.278A885.18 885.18 0 0 0 133.093 0h-2.724ZM158.322-9.709h9.329c-.106-1.489-.539-2.635-1.299-3.437-.76-.803-1.774-1.204-3.041-1.204-1.33 0-2.442.412-3.334 1.235-.892.824-1.444 1.959-1.655 3.406ZM163.675.348c-2.587 0-4.641-.768-6.161-2.304-1.521-1.537-2.281-3.577-2.281-6.122 0-2.503.731-4.559 2.194-6.169 1.462-1.611 3.397-2.416 5.805-2.416 1.52 0 2.822.354 3.904 1.061a6.378 6.378 0 0 1 2.408 2.883c.522 1.215.784 2.624.784 4.229 0 .201-.016.46-.048.776h-12.037c.031 1.817.554 3.218 1.568 4.206 1.013.987 2.354 1.481 4.023 1.481 1.943 0 3.664-.602 5.163-1.806l.871 2.154c-1.742 1.352-3.806 2.027-6.193 2.027ZM178.181 0v-12.259c0-.36-.019-.872-.056-1.537-.037-.665-.071-1.241-.103-1.726l-.047-.729h3.089l.031 2.534c.982-1.943 2.429-2.914 4.34-2.914a6.64 6.64 0 0 1 1.647.19l-.015 2.582a6.838 6.838 0 0 0-1.79-.254c-1.246 0-2.249.436-3.01 1.307-.76.871-1.14 2.125-1.14 3.762V0h-2.946ZM194.064 0v-23.537h2.915v14.239l7.048-6.953h3.992l-8.237 7.745L208.589 0h-3.865l-7.745-7.682V0h-2.915ZM220.354.348c-1.404 0-2.642-.211-3.714-.633-1.072-.422-1.903-.866-2.495-1.331l.808-2.17c.602.444 1.37.845 2.305 1.204a7.908 7.908 0 0 0 2.859.539c2.154 0 3.231-.792 3.231-2.376 0-.665-.243-1.162-.729-1.489-.486-.327-1.431-.729-2.835-1.204l-1.394-.475c-.538-.19-.995-.37-1.37-.538a7.51 7.51 0 0 1-1.133-.642 3.955 3.955 0 0 1-.918-.839 3.677 3.677 0 0 1-.562-1.093 4.562 4.562 0 0 1-.214-1.45c0-.77.161-1.454.483-2.051a3.661 3.661 0 0 1 1.322-1.409 6.748 6.748 0 0 1 1.854-.777 8.736 8.736 0 0 1 2.185-.261c2.144 0 3.95.47 5.417 1.41l-.807 2.091c-1.426-.761-2.852-1.141-4.277-1.141-1.045 0-1.853.18-2.423.539-.571.359-.856.865-.856 1.52 0 .592.172 1.027.515 1.307s1.027.604 2.051.974c.919.306 1.463.491 1.632.554.665.233 1.198.433 1.599.602a9.91 9.91 0 0 1 1.291.673c.46.28.813.573 1.062.88.248.306.454.689.617 1.148.164.459.246.979.246 1.56 0 .866-.164 1.624-.491 2.273-.328.649-.771 1.156-1.331 1.52a6.402 6.402 0 0 1-1.821.816 7.922 7.922 0 0 1-2.107.269ZM242.035 0h-1.347c-2.302-.021-3.878-.433-4.728-1.235-.85-.803-1.275-2.265-1.275-4.388v-8.68h-3.12v-1.948h3.184v-4.181l2.851-.84v5.021h4.403v1.948H237.6v8.838c0 .581.039 1.051.119 1.41.079.359.203.663.372.911.169.248.438.43.808.546.369.117.786.198 1.251.246.465.047 1.093.071 1.885.071V0ZM256.588-2.027c1.615 0 2.848-.563 3.698-1.687.85-1.125 1.275-2.637 1.275-4.538 0-1.795-.433-3.25-1.299-4.364-.865-1.114-2.101-1.671-3.706-1.671-1.689 0-2.975.56-3.857 1.679-.881 1.119-1.322 2.587-1.322 4.403 0 1.827.443 3.313 1.33 4.459.887 1.146 2.181 1.719 3.881 1.719Zm-.412 2.375c-1.214 0-2.315-.227-3.303-.681-.987-.454-1.8-1.069-2.439-1.845a8.414 8.414 0 0 1-1.473-2.693 10.135 10.135 0 0 1-.515-3.254c0-1.584.309-3.018.927-4.301a7.483 7.483 0 0 1 2.701-3.081c1.182-.77 2.55-1.156 4.102-1.156 1.151 0 2.199.28 3.144.84.945.559 1.66 1.277 2.146 2.154v-2.582h2.883V0h-2.914v-2.772a5.278 5.278 0 0 1-2.075 2.289c-.919.554-1.98.831-3.184.831ZM281.405 0h-1.347c-2.302-.021-3.878-.433-4.728-1.235-.85-.803-1.275-2.265-1.275-4.388v-8.68h-3.12v-1.948h3.184v-4.181l2.851-.84v5.021h4.403v1.948h-4.403v8.838c0 .581.039 1.051.118 1.41.08.359.204.663.373.911s.438.43.807.546c.37.117.787.198 1.252.246.464.047 1.093.071 1.885.071V0ZM297.367 0h-1.346c-2.302-.021-3.878-.433-4.728-1.235-.85-.803-1.275-2.265-1.275-4.388v-8.68h-3.12v-1.948h3.183v-4.181l2.851-.84v5.021h4.404v1.948h-4.404v8.838c0 .581.04 1.051.119 1.41.079.359.203.663.372.911.169.248.438.43.808.546.37.117.787.198 1.251.246.465.047 1.093.071 1.885.071V0Z" style="fill-rule:nonzero;stroke:#000;stroke-width:1.8px"/></g></g></svg>